<svg xmlns="http://www.w3.org/2000/svg" viewBox="0 0 386.53 101.38"><defs><style>.cls-1{fill:#2db56f;}.cls-2{fill:#2db46f;}</style></defs><g id="Layer_2" data-name="Layer 2"><g id="Layer_1-2" data-name="Layer 1"><path class="cls-1" d="M56.72,101.31c-12.91-.22-26.6-5.45-38.06-16.21a56.93,56.93,0,0,1-18-34.54C-2,31.32,3.51,14.54,16.87.37,17.26,0,17.5-.17,18,.3c3.16,3.2,6.33,6.39,9.55,9.52.67.65.15.89-.19,1.25A43.71,43.71,0,0,0,15.87,32.79a44.3,44.3,0,0,0,33.7,52.43c15.52,3.4,29.22-.51,40.89-11.33.54-.51.8-.41,1.26.06,3.07,3.09,6.14,6.17,9.25,9.21.56.56.58.86,0,1.41A59.2,59.2,0,0,1,82.3,96.81C74.79,99.88,67.44,101.31,56.72,101.31Z"/><path class="cls-1" d="M216.82,69.16c1.3-4.28,2.51-8.29,3.72-12.31Q223.77,46.19,227,35.5a1.14,1.14,0,0,1,1.32-1c3.86,0,7.71,0,11.57,0,.85,0,1.22.2,1.47,1.06q4.89,16.08,9.85,32.13a2,2,0,0,0,.54,1.15c.62-2,1.22-3.89,1.81-5.81q4.21-13.77,8.42-27.54a1.15,1.15,0,0,1,1.32-1c4.21,0,8.43,0,12.8,0-.46,1.27-.88,2.46-1.31,3.64q-8,21.95-16,43.9a1.32,1.32,0,0,1-1.5,1.07c-4-.06-7.93,0-11.89,0a1.17,1.17,0,0,1-1.33-1q-4.77-14.72-9.61-29.41c-.14-.44-.3-.86-.53-1.49-.9,2.74-1.75,5.3-2.59,7.87q-3.75,11.57-7.47,23.15a1,1,0,0,1-1.22.84q-6.11,0-12.21,0a1.08,1.08,0,0,1-1.2-.87Q200.67,59,192.08,35.71c-.29-.81-.29-1.09.71-1.09,4,0,8.07,0,12.1-.09.9,0,1.21.3,1.45,1.09q5,16.26,10.12,32.5Z"/><path class="cls-2" d="M132.53,52.31c2.19-2,4.52-4.07,6.71-6.26,3.58-3.58,7.07-7.25,10.59-10.89a1.31,1.31,0,0,1,1-.49l14.68,0a5,5,0,0,1,.57.11c-1.48,1.58-2.85,3-4.24,4.5-4.28,4.49-8.54,9-12.86,13.44-.61.63-.33,1,0,1.55q8.75,14,17.45,27.9c.17.26.42.49.42.85a2.06,2.06,0,0,1-1,.09c-4.75,0-9.49,0-14.24,0a1.66,1.66,0,0,1-1.67-1c-3.48-5.92-7-11.81-10.5-17.74-.5-.85-.77-.93-1.45-.16-1.56,1.76-3.22,3.43-4.85,5.13a2,2,0,0,0-.58,1.52c0,3.75,0,7.49,0,11.23,0,.82-.24,1-1,1q-6-.06-12,0c-.84,0-1-.26-1-1q0-32.5,0-65c0-.82.24-1,1-1,4,0,8,.05,12,0,.83,0,1,.25,1,1q0,17.16,0,34.32Z"/><path class="cls-1" d="M334.13,34.55c4.76,0,9.33,0,13.9,0,.59,0,.68.36.83.76q3.74,9.83,7.49,19.64l4.5,11.76c.11.28.24.55.47,1.06.33-1,.59-1.66.83-2.39q5.14-14.93,10.26-29.86a1.17,1.17,0,0,1,1.32-1c4,0,7.92.06,11.89,0,1.07,0,1,.3.71,1.13q-8.94,22.56-17.86,45.13c-1.35,3.4-2.59,6.85-4.16,10.17-6.1,12.92-21.76,12.38-29.36,6.18-.55-.44-.53-.77-.21-1.32q2.52-4.21,5-8.47c.38-.65.64-.75,1.26-.26a8.45,8.45,0,0,0,7.2,1.9,6.27,6.27,0,0,0,4.24-3.17c.61-1,1.07-2.17,1.66-3.22.29-.52,0-.9-.14-1.31q-8.08-19.05-16.16-38.11C336.58,40.37,335.39,37.56,334.13,34.55Z"/><path class="cls-2" d="M323.18,64.83c0,5.77,0,11.54,0,17.31,0,.79-.18,1-1,1-3.92,0-7.85-.06-11.77,0-.94,0-1.1-.3-1.1-1.15,0-11.44,0-22.87,0-34.31,0-1-.19-1.39-1.27-1.32-1.49.1-3,0-4.49,0-.57,0-.83-.11-.82-.76,0-2.74,0-5.48,0-8.23,0-.57.2-.72.74-.71,1.64,0,3.29,0,4.93,0,.7,0,.91-.2.91-.9a39.45,39.45,0,0,1,.18-6.61c1.12-6.83,5.16-11.12,11.77-12.91a24.25,24.25,0,0,1,17.65,2c.87.43,1.08.82.59,1.76-1.44,2.74-2.77,5.53-4.12,8.32-.27.58-.46.7-1.07.32a9.15,9.15,0,0,0-7.24-1.41,4.78,4.78,0,0,0-3.79,4.14,36.76,36.76,0,0,0-.16,4.69c0,.78.51.62.94.62,3.14,0,6.28.06,9.42,0,1,0,1.22.32,1.2,1.25-.06,2.49-.06,5,0,7.48,0,.83-.24,1-1,1-3.18,0-6.36,0-9.53,0-.79,0-1,.2-1,1C323.2,53.21,323.18,59,323.18,64.83Z"/><path class="cls-1" d="M280.77,58.71c0-7.66,0-15.32,0-23,0-1,.31-1.22,1.25-1.21q5.83.07,11.67,0c.84,0,1.15.16,1.15,1.09q0,23.24,0,46.48c0,.73-.1,1.07-1,1.06q-6-.07-12.1,0c-.85,0-1-.29-1-1C280.78,74.31,280.77,66.51,280.77,58.71Z"/><path class="cls-2" d="M172.77,58.72c0-7.7,0-15.39,0-23.09,0-.91.24-1.11,1.12-1.1q5.94.07,11.88,0c.83,0,1,.24,1,1q0,23.31,0,46.61c0,.82-.24,1-1,1q-6-.06-12,0c-.83,0-1-.26-1-1C172.78,74.33,172.77,66.52,172.77,58.72Z"/><path class="cls-1" d="M179.75,28.57c-4.42,0-7.54-3.23-7.53-7.8s3.1-7.78,7.54-7.78,7.54,3.21,7.54,7.79S184.17,28.57,179.75,28.57Z"/><path class="cls-1" d="M295.3,20.78c0,4.58-3.11,7.79-7.53,7.79s-7.5-3.18-7.5-7.81S283.32,13,287.78,13,295.31,16.19,295.3,20.78Z"/><path class="cls-1" d="M45.25,53c2.3,0,3.35,1.15,3.11,3.07-.37,3-2.14,5.15-4.22,7.1A11.53,11.53,0,0,1,39,66.09c-2.73.67-4.37-.77-3.75-3.51.88-3.85,3.49-6.43,6.75-8.43A7.62,7.62,0,0,1,45.25,53Z"/><path class="cls-1" d="M33.1,50.17a10.83,10.83,0,0,1-4.73-.87c-2.3-1.09-2.64-3.14-.77-4.87a11.94,11.94,0,0,1,6.27-2.76,13,13,0,0,1,5.94.18c1.38.4,2.82.9,3.13,2.54s-.89,2.77-2.16,3.61A14.61,14.61,0,0,1,33.1,50.17Z"/><path class="cls-1" d="M40.3,35.83a14.67,14.67,0,0,1-9.78-5.32,4.89,4.89,0,0,1-.46-.72c-1.39-2.43-.44-4.29,2.35-4.6,3.92-.45,9.92,2.63,11.85,6.08C45.78,34,44.42,35.85,40.3,35.83Z"/><path class="cls-1" d="M76.31,68.07c-.07.59-.09,1.05-.18,1.5a2.55,2.55,0,0,1-3.82,2.05,10,10,0,0,1-4.53-4.39,12.55,12.55,0,0,1-2.15-7.88c.29-2.67,2.2-3.64,4.51-2.23,3.16,1.94,4.77,5,5.75,8.44A19,19,0,0,1,76.31,68.07Z"/><path class="cls-1" d="M59.91,64.89a14,14,0,0,1-2.08,7.72C57,73.9,56,75.17,54.27,74.89S52,73.17,51.63,71.72a14.43,14.43,0,0,1,1.86-11.27c.76-1.2,1.77-2.3,3.36-2.07S59,60,59.47,61.3A10.15,10.15,0,0,1,59.91,64.89Z"/></g></g></svg>