<svg xmlns="http://www.w3.org/2000/svg" viewBox="0 0 80.15 28.78"><defs><style>.cls-1{fill:none;stroke:#939598;stroke-linecap:round;stroke-linejoin:round;stroke-width:6.26px;}.cls-2{fill:#32bcad;}.cls-3{fill:#939598;}</style></defs><g id="Layer_2" data-name="Layer 2"><g id="Layer_1-2" data-name="Layer 1"><path class="cls-1" d="M31.89,25.65V9.89a5.25,5.25,0,0,1,5.25-5.24h4.65A5.24,5.24,0,0,1,47,9.89v3.36a5.25,5.25,0,0,1-5.25,5.24H35.2"/><path class="cls-1" d="M48.32,4.65h2A2.15,2.15,0,0,1,52.49,6.8V18.57"/><path class="cls-2" d="M52.06,2.82l-.92-.91a.57.57,0,0,1,0-.82h0l.92-.92a.57.57,0,0,1,.82,0l.91.92a.57.57,0,0,1,0,.82h0l-.91.91a.59.59,0,0,1-.83,0h0"/><path class="cls-1" d="M56.36,4.63h2a3.89,3.89,0,0,1,2.75,1.14l4.68,4.68a1.54,1.54,0,0,0,2.19,0h0l4.67-4.66a3.85,3.85,0,0,1,2.74-1.14H77"/><path class="cls-1" d="M56.36,18.46h2a3.92,3.92,0,0,0,2.75-1.13l4.68-4.68a1.54,1.54,0,0,1,2.19,0l4.67,4.66a3.85,3.85,0,0,0,2.74,1.14H77"/><path class="cls-2" d="M20,21.45a3.7,3.7,0,0,1-2.66-1.1l-3.84-3.84a.73.73,0,0,0-1,0L8.6,20.37a3.77,3.77,0,0,1-2.66,1.1H5.19l4.87,4.86a3.89,3.89,0,0,0,5.5,0l4.87-4.87Z"/><path class="cls-2" d="M5.94,7.87A3.77,3.77,0,0,1,8.6,9l3.86,3.86a.7.7,0,0,0,1,0L17.3,9A3.7,3.7,0,0,1,20,7.89h.46L15.55,3a3.89,3.89,0,0,0-5.5,0h0L5.19,7.87Z"/><path class="cls-2" d="M24.46,11.92,21.51,9a.54.54,0,0,1-.21,0H20a2.65,2.65,0,0,0-1.86.77l-3.84,3.83a1.83,1.83,0,0,1-2.6,0L7.8,9.77A2.63,2.63,0,0,0,5.94,9H4.3a.48.48,0,0,1-.2,0l-3,3a3.89,3.89,0,0,0,0,5.5l3,3a.43.43,0,0,1,.19,0H5.94a2.63,2.63,0,0,0,1.86-.77l3.86-3.86a1.89,1.89,0,0,1,2.6,0l3.84,3.84a2.65,2.65,0,0,0,1.86.77H21.3a.54.54,0,0,1,.21.05l2.95-2.95a3.89,3.89,0,0,0,0-5.5h0"/><path class="cls-3" d="M35.89,24.31a3.48,3.48,0,0,0-.72.11v1a1.77,1.77,0,0,0,.56.09c.48,0,.71-.16.71-.58s-.19-.58-.55-.58M35,26.09v-1.9h.13v.08a4.88,4.88,0,0,1,.75-.12.76.76,0,0,1,.5.15.72.72,0,0,1,.21.58.65.65,0,0,1-.31.61,1.17,1.17,0,0,1-.55.13,1.9,1.9,0,0,1-.58-.09v.56Z"/><path class="cls-3" d="M37.82,24.3c-.48,0-.69.15-.69.58s.21.59.69.59.69-.15.69-.57-.21-.6-.69-.6m.62,1.17a1,1,0,0,1-.62.15,1.1,1.1,0,0,1-.62-.15.64.64,0,0,1-.25-.58.67.67,0,0,1,.25-.59,1.36,1.36,0,0,1,1.24,0,.67.67,0,0,1,.25.59.65.65,0,0,1-.25.58"/><path class="cls-3" d="M40.72,25.58l-.54-1.15h0l-.53,1.15h-.15l-.56-1.39h.18l.47,1.17h0l.52-1.17h.15l.53,1.17h0l.46-1.17h.18l-.57,1.39Z"/><path class="cls-3" d="M42.47,24.3c-.44,0-.59.2-.62.49H43.1c0-.32-.18-.49-.63-.49m0,1.32a.87.87,0,0,1-.58-.15.85.85,0,0,1,0-1.18.93.93,0,0,1,.54-.14,1,1,0,0,1,.56.14.7.7,0,0,1,.24.64H41.85c0,.29.1.54.63.54a4.18,4.18,0,0,0,.72-.08v.14a4.41,4.41,0,0,1-.73.09"/><path class="cls-3" d="M43.74,25.58V24.19h.13v.08a2.64,2.64,0,0,1,.69-.12h0v.16h0a2.25,2.25,0,0,0-.65.11v1.16Z"/><path class="cls-3" d="M45.53,24.3c-.44,0-.59.2-.62.49h1.25c0-.32-.18-.49-.63-.49m0,1.32a.87.87,0,0,1-.58-.15.85.85,0,0,1,0-1.18.93.93,0,0,1,.54-.14,1,1,0,0,1,.56.14.7.7,0,0,1,.24.64H44.9c0,.29.1.54.64.54a4.41,4.41,0,0,0,.72-.08v.14a4.41,4.41,0,0,1-.73.09"/><path class="cls-3" d="M48.11,24.4a1.54,1.54,0,0,0-.56-.1c-.49,0-.71.16-.71.59s.18.58.55.58a4.48,4.48,0,0,0,.72-.11Zm0,1.18,0-.08a3.09,3.09,0,0,1-.75.12.72.72,0,0,1-.49-.14.75.75,0,0,1-.22-.59.65.65,0,0,1,.31-.61,1.09,1.09,0,0,1,.56-.12,2.25,2.25,0,0,1,.58.08v-.63h.16v2Z"/><path class="cls-3" d="M50.65,24.31a3.48,3.48,0,0,0-.72.11v1a1.77,1.77,0,0,0,.56.09c.48,0,.71-.16.71-.58s-.19-.58-.55-.58m.41,1.19a1.16,1.16,0,0,1-.55.12,2.19,2.19,0,0,1-.63-.1v.06h-.11v-2h.16v.66a4.45,4.45,0,0,1,.73-.12.76.76,0,0,1,.5.15.73.73,0,0,1,.21.59.67.67,0,0,1-.31.61"/><path class="cls-3" d="M51.59,26.11V26l.2,0a.42.42,0,0,0,.44-.29l.05-.11-.73-1.39h.19l.62,1.2h0l.59-1.2h.19l-.78,1.56a.58.58,0,0,1-.58.38l-.2,0"/><path class="cls-3" d="M55.39,24.79h-.54v.49h.54c.37,0,.51-.05.51-.25s-.19-.24-.51-.24m-.1-.79h-.44v.5h.44c.37,0,.51-.05.51-.25s-.18-.24-.51-.24m.84,1.45a1.69,1.69,0,0,1-.88.13h-.82V23.7h.8a1.48,1.48,0,0,1,.8.12.38.38,0,0,1,.19.37.41.41,0,0,1-.29.42h0c.24.06.4.18.4.45a.42.42,0,0,1-.2.38"/><path class="cls-3" d="M58,25a4,4,0,0,0-.5,0c-.28,0-.38.05-.38.18s.08.19.3.19a2.89,2.89,0,0,0,.58-.08Zm.08.58V25.5a3.17,3.17,0,0,1-.75.12.68.68,0,0,1-.42-.1.43.43,0,0,1-.06-.61.45.45,0,0,1,.14-.1,1.24,1.24,0,0,1,.52-.08l.5,0v0c0-.22-.14-.29-.53-.29l-.51,0v-.28l.59,0a1.17,1.17,0,0,1,.65.12.51.51,0,0,1,.19.48v.82Z"/><path class="cls-3" d="M60.17,25.58v-.77c0-.25-.13-.34-.36-.34a2.62,2.62,0,0,0-.56.09v1h-.39V24.19h.31l0,.09a3.7,3.7,0,0,1,.74-.13.71.71,0,0,1,.48.15.53.53,0,0,1,.15.43v.85Z"/><path class="cls-3" d="M61.65,25.62a.73.73,0,0,1-.51-.15.82.82,0,0,1,.06-1.18,1.12,1.12,0,0,1,.61-.14l.49,0v.3a3.4,3.4,0,0,0-.45,0c-.36,0-.54.12-.54.44s.13.43.43.43a3.81,3.81,0,0,0,.59-.07v.28a3.84,3.84,0,0,1-.68.09"/><path class="cls-3" d="M63.48,24.45c-.37,0-.53.11-.53.43s.16.45.53.45.52-.11.52-.43-.15-.45-.52-.45m.66,1a1.12,1.12,0,0,1-.66.15,1.13,1.13,0,0,1-.67-.15.64.64,0,0,1-.26-.58.66.66,0,0,1,.26-.59,1.21,1.21,0,0,1,.67-.15,1.2,1.2,0,0,1,.66.15.66.66,0,0,1,.26.59.65.65,0,0,1-.26.58"/><path class="cls-3" d="M66.64,25.62a1,1,0,0,1-.68-.2,1,1,0,0,1-.29-.78.93.93,0,0,1,.38-.8,1.43,1.43,0,0,1,.8-.18l.66,0V24c-.2,0-.45,0-.64,0-.54,0-.77.2-.77.64s.21.64.61.64a4.83,4.83,0,0,0,.84-.11v.33a4.63,4.63,0,0,1-.91.12"/><path class="cls-3" d="M68.69,24.4c-.33,0-.45.12-.47.33h.93c0-.23-.14-.33-.46-.33m-.06,1.22a.89.89,0,0,1-.59-.16.73.73,0,0,1-.22-.58.69.69,0,0,1,.26-.58,1.34,1.34,0,0,1,1.21,0,.76.76,0,0,1,.24.69H68.21c0,.21.13.35.52.35a4.78,4.78,0,0,0,.74-.08v.28a6,6,0,0,1-.84.09"/><path class="cls-3" d="M71.26,25.58v-.77c0-.25-.13-.34-.36-.34a2.82,2.82,0,0,0-.57.09v1H70V24.19h.31l0,.09a3.7,3.7,0,0,1,.74-.13.67.67,0,0,1,.47.15.53.53,0,0,1,.16.43v.85Z"/><path class="cls-3" d="M72.75,25.62a.49.49,0,0,1-.45-.2.68.68,0,0,1-.1-.42v-.52h-.28v-.29h.28l0-.42h.34v.42h.55v.29h-.55v.45a.75.75,0,0,0,0,.26.25.25,0,0,0,.25.13,1.27,1.27,0,0,0,.28,0v.28a1.83,1.83,0,0,1-.4.05"/><path class="cls-3" d="M73.51,25.58V24.19h.32v.09a2.63,2.63,0,0,1,.69-.13h0v.34h-.14a2.42,2.42,0,0,0-.54.07v1Z"/><path class="cls-3" d="M76,25a4.18,4.18,0,0,0-.5,0c-.29,0-.39.05-.39.18s.09.19.3.19a2.89,2.89,0,0,0,.59-.08Zm.08.58V25.5a3.26,3.26,0,0,1-.76.12.71.71,0,0,1-.42-.1.4.4,0,0,1-.15-.34.37.37,0,0,1,.23-.37,1.26,1.26,0,0,1,.52-.08l.51,0v0c0-.22-.15-.29-.54-.29l-.51,0v-.28l.6,0a1.2,1.2,0,0,1,.65.12.54.54,0,0,1,.19.48v.82Z"/><path class="cls-3" d="M76.87,23.61h.39v2h-.39Z"/></g></g></svg>