<svg xmlns="http://www.w3.org/2000/svg" viewBox="0 0 388.13 137.32"><defs><style>.cls-1{fill:none;stroke:#939598;stroke-linecap:round;stroke-linejoin:round;stroke-width:6.26px;}.cls-2{fill:#fecf3e;}</style></defs><g id="Layer_2" data-name="Layer 2"><g id="Layer_1-2" data-name="Layer 1"><g id="Layer_2-2" data-name="Layer 2"><g id="Layer_1-2-2" data-name="Layer 1-2"><path class="cls-1" d="M159.43,128.22V49.46a26.23,26.23,0,0,1,26.23-26.23h23.25a26.19,26.19,0,0,1,26.14,26.2V66.22a26.24,26.24,0,0,1-26.22,26.24H176"/><path class="cls-1" d="M241.55,23.22h10.09A10.77,10.77,0,0,1,262.41,34h0V92.82"/><path class="cls-2" d="M260.24,14.11l-4.57-4.58a2.89,2.89,0,0,1,0-4.09h0L260.24.85a2.93,2.93,0,0,1,4.12,0l4.57,4.57a2.93,2.93,0,0,1,0,4.11h0l-4.59,4.58a2.93,2.93,0,0,1-4.11,0h0"/><path class="cls-1" d="M281.77,23.17h10a19.37,19.37,0,0,1,13.72,5.68l23.4,23.39a7.74,7.74,0,0,0,10.94,0l.06,0h0L363.2,28.93a19.34,19.34,0,0,1,13.72-5.67H385"/><path class="cls-1" d="M281.77,92.3h10a19.41,19.41,0,0,0,13.72-5.68l23.4-23.39a7.76,7.76,0,0,1,11,0l0,0L363.2,86.54a19.37,19.37,0,0,0,13.72,5.68H385"/><path class="cls-2" d="M99.79,107.24a18.69,18.69,0,0,1-13.29-5.48L67.31,82.55a3.64,3.64,0,0,0-5.05,0L43,101.81a18.73,18.73,0,0,1-13.29,5.5H26l24.32,24.33a19.46,19.46,0,0,0,27.49,0l24.37-24.38Z"/><path class="cls-2" d="M29.72,39.36A18.7,18.7,0,0,1,43,44.86L62.27,64.13a3.57,3.57,0,0,0,5,0L86.5,44.94a18.62,18.62,0,0,1,13.29-5.51h2.31L77.73,15.06a19.44,19.44,0,0,0-27.49,0h0L26,39.36Z"/><path class="cls-2" d="M122.27,59.6,107.54,44.87a3.17,3.17,0,0,1-1.05.21h-6.7a13.18,13.18,0,0,0-9.29,3.85L71.3,68.11a9.23,9.23,0,0,1-13,0L39,48.86A13.2,13.2,0,0,0,29.72,45H21.5a3,3,0,0,1-1-.2L5.68,59.6a19.48,19.48,0,0,0,0,27.49l14.79,14.79a2.42,2.42,0,0,1,1-.2h8.26A13.28,13.28,0,0,0,39,97.82L58.27,78.56a9.44,9.44,0,0,1,13,0L90.5,97.75a13.22,13.22,0,0,0,9.29,3.85h6.7a2.73,2.73,0,0,1,1.05.21l14.73-14.73a19.44,19.44,0,0,0,0-27.48h0"/><path class="cls-2" d="M179.42,121.52a16.76,16.76,0,0,0-3.6.55v4.8a8.57,8.57,0,0,0,2.8.47c2.41,0,3.55-.81,3.55-2.93s-.93-2.89-2.75-2.89M175,130.44v-9.5h.66l.06.41a18.44,18.44,0,0,1,3.76-.61A3.14,3.14,0,0,1,183,124.4a3.38,3.38,0,0,1-1.54,3,5.91,5.91,0,0,1-2.8.62,9.67,9.67,0,0,1-2.88-.44v2.8Z"/><path class="cls-2" d="M189.08,121.49c-2.41,0-3.48.76-3.48,2.88s1.06,3,3.48,3,3.46-.75,3.46-2.86-1-3-3.46-3m3.09,5.85a5.24,5.24,0,0,1-3.09.74,5.44,5.44,0,0,1-3.11-.74,3.29,3.29,0,0,1-1.24-2.91,3.36,3.36,0,0,1,1.24-2.94,6.84,6.84,0,0,1,6.2,0,4.07,4.07,0,0,1,0,5.85"/><path class="cls-2" d="M203.57,127.89l-2.69-5.76h0l-2.64,5.76h-.75l-2.83-7h.89l2.38,5.83H198l2.58-5.83h.74l2.65,5.83h0l2.32-5.83h.88l-2.86,7Z"/><path class="cls-2" d="M212.34,121.48c-2.23,0-3,1-3.12,2.43h6.25c-.07-1.58-.88-2.43-3.13-2.43m0,6.6a4.27,4.27,0,0,1-2.9-.77,3.58,3.58,0,0,1-1.08-2.88,3.53,3.53,0,0,1,1.3-3,4.58,4.58,0,0,1,2.7-.7,4.78,4.78,0,0,1,2.78.68c1,.67,1.2,1.85,1.2,3.2H209.2c0,1.43.5,2.69,3.19,2.69a21.8,21.8,0,0,0,3.59-.4v.73a20.52,20.52,0,0,1-3.65.42"/><path class="cls-2" d="M218.65,127.89v-7h.65l.07.41a11.92,11.92,0,0,1,3.46-.61h.09v.77h-.19a11,11,0,0,0-3.27.55v5.82Z"/><path class="cls-2" d="M227.64,121.48c-2.23,0-3,1-3.13,2.43h6.25c-.07-1.58-.88-2.43-3.12-2.43m0,6.6a3.67,3.67,0,0,1-2.68-6.63,4.61,4.61,0,0,1,2.71-.7,4.75,4.75,0,0,1,2.77.68c1,.67,1.22,1.85,1.22,3.2h-7.14c0,1.43.49,2.69,3.19,2.69a21.8,21.8,0,0,0,3.59-.4v.73a20.52,20.52,0,0,1-3.65.42"/><path class="cls-2" d="M240.5,122a8.72,8.72,0,0,0-2.81-.47c-2.4,0-3.54.81-3.54,2.94s.93,2.88,2.75,2.88a18.31,18.31,0,0,0,3.6-.54Zm.15,5.93-.07-.41a19.17,19.17,0,0,1-3.75.61,3.19,3.19,0,0,1-3.57-2.75,3.09,3.09,0,0,1,0-.91,3.22,3.22,0,0,1,1.54-3,5.75,5.75,0,0,1,2.8-.63,10.11,10.11,0,0,1,2.88.44V118h.81v9.87Z"/><path class="cls-2" d="M253.21,121.52a17,17,0,0,0-3.61.55v4.79a8.38,8.38,0,0,0,2.81.48c2.41,0,3.55-.81,3.55-2.93s-.93-2.89-2.75-2.89m2.07,5.94a6,6,0,0,1-2.78.62,9.94,9.94,0,0,1-3.11-.52v.33h-.56V118h.81v3.31a18.94,18.94,0,0,1,3.68-.58,3.19,3.19,0,0,1,3.55,3.66,3.36,3.36,0,0,1-1.55,3"/><path class="cls-2" d="M257.9,130.54v-.75c.41,0,.77.07,1,.07a2.12,2.12,0,0,0,2.18-1.43l.26-.55-3.65-6.95h.94l3.11,6h.05l3-6h.92l-3.9,7.8a2.86,2.86,0,0,1-2.91,1.88,8.26,8.26,0,0,1-1-.07"/><path class="cls-2" d="M276.91,123.93h-2.7v2.43h2.7c1.85,0,2.55-.21,2.55-1.22s-1-1.21-2.57-1.21M276.4,120h-2.19v2.48h2.21c1.83,0,2.56-.22,2.56-1.25s-.93-1.22-2.58-1.22m4.19,7.25c-1,.63-2.19.66-4.38.66H272.1v-9.45h4c1.89,0,3,0,4,.6a2.23,2.23,0,0,1-.49,4v.06a2.15,2.15,0,0,1,2,2.23,2,2,0,0,1-1,1.91"/><path class="cls-2" d="M289.81,125c-.81-.07-1.62-.11-2.5-.11-1.41,0-1.91.29-1.91.94s.4.93,1.5.93a15.1,15.1,0,0,0,2.91-.4Zm.41,2.92-.05-.41a17.24,17.24,0,0,1-3.77.61,3.62,3.62,0,0,1-2.11-.51,2.14,2.14,0,0,1-.26-3,1.82,1.82,0,0,1,.67-.53,6.37,6.37,0,0,1,2.6-.37,24.15,24.15,0,0,1,2.51.09v-.12c0-1.09-.71-1.44-2.66-1.44a19.16,19.16,0,0,0-2.56.12V121c1-.08,2.08-.13,3-.13a5.88,5.88,0,0,1,3.24.64,2.61,2.61,0,0,1,.95,2.38V128Z"/><path class="cls-2" d="M300.82,127.89v-3.83c0-1.27-.64-1.72-1.8-1.72a12.84,12.84,0,0,0-2.83.44v5.11h-1.94v-7h1.58l.07.44a16.65,16.65,0,0,1,3.71-.63,3.37,3.37,0,0,1,2.38.72,2.72,2.72,0,0,1,.76,2.17v4.25Z"/><path class="cls-2" d="M308.23,128.08a3.91,3.91,0,0,1-2.59-.73,3.57,3.57,0,0,1-1.1-2.94,3.35,3.35,0,0,1,1.42-3,5.31,5.31,0,0,1,3.05-.69,22,22,0,0,1,2.43.14v1.48c-.7-.07-1.54-.12-2.21-.12-1.85,0-2.71.58-2.71,2.18s.65,2.14,2.16,2.14a15.86,15.86,0,0,0,2.91-.36v1.43a16.83,16.83,0,0,1-3.38.44"/><path class="cls-2" d="M317.34,122.21c-1.85,0-2.66.58-2.66,2.16s.81,2.25,2.66,2.25,2.62-.56,2.62-2.14-.78-2.27-2.62-2.27m3.33,5.14a8,8,0,0,1-6.67,0,4,4,0,0,1,0-5.92,8,8,0,0,1,6.67,0,3.26,3.26,0,0,1,1.29,2.93,3.36,3.36,0,0,1-1.29,2.94"/><path class="cls-2" d="M333.15,128.08a5.23,5.23,0,0,1-3.38-1,4.8,4.8,0,0,1-1.47-3.93,4.59,4.59,0,0,1,1.91-4,7.14,7.14,0,0,1,4-.89c1,0,2.12.06,3.29.16v1.69c-1-.08-2.25-.15-3.21-.15-2.68,0-3.82,1-3.82,3.19s1.06,3.21,3,3.21a21.23,21.23,0,0,0,4.19-.57v1.68a24,24,0,0,1-4.54.59"/><path class="cls-2" d="M343.39,122c-1.62,0-2.23.58-2.35,1.62h4.68c-.06-1.13-.72-1.62-2.33-1.62m-.29,6.08a4.51,4.51,0,0,1-2.94-.77,3.65,3.65,0,0,1-1.12-2.9,3.5,3.5,0,0,1,1.31-2.93,5.08,5.08,0,0,1,3-.73,5.27,5.27,0,0,1,3,.7c1.12.78,1.22,2,1.22,3.42H341c0,1.07.6,1.75,2.55,1.75a25.61,25.61,0,0,0,3.7-.36v1.37a26.72,26.72,0,0,1-4.18.45"/><path class="cls-2" d="M356.25,127.89v-3.83c0-1.27-.64-1.72-1.8-1.72a12.93,12.93,0,0,0-2.84.44v5.11h-1.93v-7h1.58l.07.44a16.65,16.65,0,0,1,3.71-.63,3.42,3.42,0,0,1,2.38.72,2.71,2.71,0,0,1,.75,2.17v4.25Z"/><path class="cls-2" d="M363.7,128.08a2.51,2.51,0,0,1-2.25-1,3.54,3.54,0,0,1-.52-2.1v-2.6h-1.4v-1.45h1.4l.21-2.1h1.71v2.1h2.74v1.45h-2.74v2.23a3.53,3.53,0,0,0,.19,1.32,1.26,1.26,0,0,0,1.27.64,9.35,9.35,0,0,0,1.39-.14v1.39a11.28,11.28,0,0,1-2,.25"/><path class="cls-2" d="M367.49,127.89v-7h1.58l.07.44a11.87,11.87,0,0,1,3.44-.63h.25v1.68h-.68a11.28,11.28,0,0,0-2.72.36v5.13Z"/><path class="cls-2" d="M379.88,125c-.81-.07-1.62-.11-2.51-.11-1.41,0-1.91.29-1.91.94s.41.93,1.5.93a15.2,15.2,0,0,0,2.92-.4Zm.41,2.92-.06-.41a17.24,17.24,0,0,1-3.77.61,3.7,3.7,0,0,1-2.11-.51,2.14,2.14,0,0,1,.41-3.56,6.32,6.32,0,0,1,2.59-.37,24.34,24.34,0,0,1,2.52.09v-.12c0-1.09-.72-1.44-2.67-1.44a19.09,19.09,0,0,0-2.55.12v-1.41c1-.08,2.07-.13,3-.13a5.88,5.88,0,0,1,3.24.64,2.61,2.61,0,0,1,.95,2.38v4.12Z"/><path class="cls-2" d="M384.31,118h1.94v9.87h-1.94Z"/></g></g></g></g></svg>