<?xml version="1.0" encoding="UTF-8"?>
<svg width="256px" height="256px" viewBox="0 0 256 256" version="1.1" xmlns="http://www.w3.org/2000/svg" xmlns:xlink="http://www.w3.org/1999/xlink">
    <!-- Generator: Sketch 51.2 (57519) - http://www.bohemiancoding.com/sketch -->
    <title>_branding/Mastercard</title>
    <desc>Created with Sketch.</desc>
    <defs></defs>
    <g id="_branding/Mastercard" stroke="none" stroke-width="1" fill="none" fill-rule="evenodd">
        <g id="Group" transform="translate(49.000000, 68.000000)">
            <path d="M152.77928,77.2146507 L152.77928,75.3633424 L152.297251,75.3633424 L151.741064,76.6372756 L151.184877,75.3633424 L150.701524,75.3633424 L150.701524,77.2146507 L151.043182,77.2146507 L151.043182,75.8188861 L151.563614,77.0213095 L151.91719,77.0213095 L152.438946,75.8162376 L152.438946,77.2146507 L152.77928,77.2146507 Z M149.720251,77.2146507 L149.720251,75.6798393 L150.338678,75.6798393 L150.338678,75.3673152 L148.762815,75.3673152 L148.762815,75.6798393 L149.381242,75.6798393 L149.381242,77.2146507 L149.720251,77.2146507 Z M151.210038,118.372491 L151.210038,118.683691 L151.496077,118.683691 C151.56229,118.683691 151.61526,118.670448 151.653663,118.645287 C151.693391,118.620126 151.71193,118.580399 151.71193,118.526104 C151.71193,118.474458 151.693391,118.436055 151.653663,118.410894 C151.61526,118.385733 151.56229,118.372491 151.496077,118.372491 L151.210038,118.372491 Z M151.50005,118.153989 C151.64969,118.153989 151.764901,118.187095 151.847004,118.253308 C151.927784,118.320845 151.968836,118.410894 151.968836,118.526104 C151.968836,118.622775 151.935729,118.703555 151.870841,118.765794 C151.805953,118.828034 151.714579,118.866438 151.595396,118.881005 L151.978106,119.321982 L151.678824,119.321982 L151.323924,118.883653 L151.210038,118.883653 L151.210038,119.321982 L150.959754,119.321982 L150.959754,118.153989 L151.50005,118.153989 Z M151.425891,119.723231 C151.560965,119.723231 151.688094,119.696746 151.804628,119.646424 C151.922487,119.594778 152.024455,119.524593 152.11318,119.435867 C152.201905,119.348467 152.270766,119.24385 152.321088,119.124668 C152.371409,119.005485 152.39657,118.878356 152.39657,118.741958 C152.39657,118.606884 152.371409,118.479755 152.321088,118.360573 C152.270766,118.24139 152.201905,118.136773 152.11318,118.048048 C152.024455,117.960648 151.922487,117.890462 151.804628,117.84014 C151.688094,117.789819 151.560965,117.764658 151.425891,117.764658 C151.288169,117.764658 151.158392,117.789819 151.039209,117.84014 C150.918702,117.890462 150.814086,117.960648 150.725361,118.048048 C150.63796,118.136773 150.567774,118.24139 150.517453,118.360573 C150.467131,118.479755 150.44197,118.606884 150.44197,118.741958 C150.44197,118.878356 150.467131,119.005485 150.517453,119.124668 C150.567774,119.24385 150.63796,119.348467 150.725361,119.435867 C150.814086,119.524593 150.918702,119.594778 151.039209,119.646424 C151.158392,119.696746 151.288169,119.723231 151.425891,119.723231 Z M151.425891,117.483916 C151.602017,117.483916 151.768873,117.517022 151.923811,117.583235 C152.078749,117.648123 152.215147,117.738173 152.330357,117.853383 C152.446892,117.967269 152.538265,118.101019 152.605802,118.253308 C152.672015,118.406921 152.705122,118.569805 152.705122,118.741958 C152.705122,118.915435 152.672015,119.076994 152.605802,119.229284 C152.538265,119.381573 152.446892,119.515323 152.330357,119.629209 C152.215147,119.743095 152.078749,119.833144 151.923811,119.900681 C151.768873,119.966894 151.602017,120 151.425891,120 C151.244468,120 151.076288,119.966894 150.918702,119.900681 C150.761115,119.833144 150.624717,119.743095 150.509507,119.629209 C150.394297,119.515323 150.304248,119.381573 150.236711,119.229284 C150.170498,119.076994 150.137391,118.915435 150.137391,118.741958 C150.137391,118.569805 150.170498,118.406921 150.236711,118.253308 C150.304248,118.101019 150.394297,117.967269 150.509507,117.853383 C150.624717,117.738173 150.761115,117.648123 150.918702,117.583235 C151.076288,117.517022 151.244468,117.483916 151.425891,117.483916 Z M33.3354669,112.989395 C33.3354669,110.764647 34.7921472,108.938499 37.1744816,108.938499 C39.4521999,108.938499 40.9883355,110.685192 40.9883355,112.989395 C40.9883355,115.293598 39.4521999,117.041615 37.1744816,117.041615 C34.7921472,117.041615 33.3354669,115.214143 33.3354669,112.989395 Z M43.583875,112.989395 L43.583875,106.660781 L40.8294249,106.660781 L40.8294249,108.196917 C39.9554168,107.058058 38.6311619,106.34296 36.8301754,106.34296 C33.2824967,106.34296 30.5015615,109.123895 30.5015615,112.989395 C30.5015615,116.856219 33.2824967,119.637154 36.8301754,119.637154 C38.6311619,119.637154 39.9554168,118.922057 40.8294249,117.783197 L40.8294249,119.319333 L43.583875,119.319333 L43.583875,112.989395 Z M136.586292,112.989395 C136.586292,110.764647 138.042972,108.938499 140.426631,108.938499 C142.703025,108.938499 144.23916,110.685192 144.23916,112.989395 C144.23916,115.293598 142.703025,117.041615 140.426631,117.041615 C138.042972,117.041615 136.586292,115.214143 136.586292,112.989395 Z M146.8347,112.989395 L146.8347,101.575643 L144.08025,101.575643 L144.08025,108.196917 C143.206242,107.058058 141.881987,106.34296 140.082325,106.34296 C136.533322,106.34296 133.752386,109.123895 133.752386,112.989395 C133.752386,116.856219 136.533322,119.637154 140.082325,119.637154 C141.881987,119.637154 143.206242,118.922057 144.08025,117.783197 L144.08025,119.319333 L146.8347,119.319333 L146.8347,112.989395 Z M77.7443526,108.806074 C79.5188541,108.806074 80.6577132,109.917124 80.9490493,111.877021 L74.3820696,111.877021 C74.6720814,110.049549 75.7844555,108.806074 77.7443526,108.806074 Z M77.7973228,106.34296 C74.0894093,106.34296 71.4951941,109.04444 71.4951941,112.989395 C71.4951941,117.01513 74.1953497,119.637154 77.9827185,119.637154 C79.8896454,119.637154 81.6376618,119.159098 83.1737974,117.862653 L81.8230575,115.8233 C80.7636536,116.670823 79.4129137,117.147555 78.1416291,117.147555 C76.3671276,117.147555 74.7515367,116.326517 74.3542602,114.048799 L83.7564695,114.048799 C83.7829546,113.704493 83.8081155,113.360186 83.8081155,112.989395 C83.7829546,109.04444 81.3463257,106.34296 77.7973228,106.34296 Z M111.032146,112.989395 C111.032146,110.764647 112.487502,108.938499 114.871161,108.938499 C117.148879,108.938499 118.685015,110.685192 118.685015,112.989395 C118.685015,115.293598 117.148879,117.041615 114.871161,117.041615 C112.487502,117.041615 111.032146,115.214143 111.032146,112.989395 Z M121.280554,112.989395 L121.280554,106.660781 L118.526104,106.660781 L118.526104,108.196917 C117.652096,107.058058 116.327841,106.34296 114.526855,106.34296 C110.979176,106.34296 108.198241,109.123895 108.198241,112.989395 C108.198241,116.856219 110.979176,119.637154 114.526855,119.637154 C116.327841,119.637154 117.652096,118.922057 118.526104,117.783197 L118.526104,119.319333 L121.280554,119.319333 L121.280554,112.989395 Z M95.4867188,112.989395 C95.4867188,116.829734 98.1617136,119.637154 102.240418,119.637154 C104.147345,119.637154 105.417306,119.213393 106.794531,118.127504 L105.470276,115.902756 C104.437357,116.644338 103.351468,117.041615 102.160963,117.041615 C99.9627002,117.01513 98.3471093,115.426024 98.3471093,112.989395 C98.3471093,110.55409 99.9627002,108.964984 102.160963,108.938499 C103.351468,108.938499 104.437357,109.334452 105.470276,110.077359 L106.794531,107.85261 C105.417306,106.766721 104.147345,106.34296 102.240418,106.34296 C98.1617136,106.34296 95.4867188,109.15038 95.4867188,112.989395 Z M130.972776,106.34296 C129.38367,106.34296 128.350751,107.084543 127.635653,108.196917 L127.635653,106.660781 L124.907688,106.660781 L124.907688,119.319333 L127.662138,119.319333 L127.662138,112.221327 C127.662138,110.130329 128.562632,108.964984 130.363618,108.964984 C130.919805,108.964984 131.502477,109.04444 132.08515,109.282806 L132.932673,106.687266 C132.322191,106.4489 131.527638,106.34296 130.972776,106.34296 Z M57.1945661,107.667215 C55.8703113,106.793207 54.0428396,106.34296 52.0312966,106.34296 C48.8265999,106.34296 46.7607623,107.879096 46.7607623,110.393855 C46.7607623,112.459693 48.2968979,113.730978 51.1308033,114.128254 L52.428573,114.31365 C53.9368993,114.525531 54.6533211,114.922807 54.6533211,115.637905 C54.6533211,116.617853 53.6455632,117.17404 51.7664456,117.17404 C49.8595186,117.17404 48.4822936,116.564883 47.5553152,115.849785 L46.2575455,117.995078 C47.767196,119.106128 49.674123,119.637154 51.7399605,119.637154 C55.3935796,119.637154 57.5123873,117.915623 57.5123873,115.505479 C57.5123873,113.280731 55.8438262,112.115387 53.0907004,111.71811 L51.7929307,111.532715 C50.6011013,111.373804 49.6476379,111.136762 49.6476379,110.289239 C49.6476379,109.362261 50.5481311,108.806074 52.0577817,108.806074 C53.6733725,108.806074 55.234669,109.415231 56.0027368,109.891963 L57.1945661,107.667215 Z M92.7071079,106.34296 C91.1180021,106.34296 90.0850834,107.084543 89.3699858,108.196917 L89.3699858,106.660781 L86.6420208,106.660781 L86.6420208,119.319333 L89.3964709,119.319333 L89.3964709,112.221327 C89.3964709,110.130329 90.2969641,108.964984 92.0979507,108.964984 C92.6541377,108.964984 93.2368099,109.04444 93.8181577,109.282806 L94.6656808,106.687266 C94.0565236,106.4489 93.2619707,106.34296 92.7071079,106.34296 Z M69.2174757,106.660781 L64.7150093,106.660781 L64.7150093,102.820442 L61.9353984,102.820442 L61.9353984,106.660781 L59.3663441,106.660781 L59.3663441,109.176865 L61.9353984,109.176865 L61.9353984,114.949292 C61.9353984,117.889138 63.0742576,119.637154 66.3306002,119.637154 C67.5224296,119.637154 68.8996546,119.265039 69.7736628,118.657206 L68.9791099,116.300032 C68.1580719,116.776764 67.2575786,117.01513 66.542481,117.01513 C65.165256,117.01513 64.7150093,116.167607 64.7150093,114.896322 L64.7150093,109.176865 L69.2174757,109.176865 L69.2174757,106.660781 Z M28.0649326,119.319333 L28.0649326,111.373804 C28.0649326,108.382312 26.1580057,106.369445 23.0870587,106.34296 C21.4714678,106.316475 19.8029067,106.819692 18.6375625,108.594193 C17.7635543,107.190483 16.3863293,106.34296 14.4542415,106.34296 C13.1035016,106.34296 11.7792467,106.740236 10.746328,108.223402 L10.746328,106.660781 L7.9918779,106.660781 L7.9918779,119.319333 L10.772813,119.319333 L10.772813,112.300782 C10.772813,110.102519 11.9911275,108.938499 13.8715694,108.938499 C15.6977168,108.938499 16.6246951,110.130329 16.6246951,112.274297 L16.6246951,119.319333 L19.4056303,119.319333 L19.4056303,112.300782 C19.4056303,110.102519 20.6769149,108.938499 22.5043866,108.938499 C24.3848285,108.938499 25.2839975,110.130329 25.2839975,112.274297 L25.2839975,119.319333 L28.0649326,119.319333 Z" id="mc_vrt_solid_rev" fill="#000000"></path>
            <g id="mastercard-logo">
                <path d="M78.6,11.4665561 C86.9251171,4.31640116 97.7241876,0 109.52459,0 C135.854992,0 157.2,21.490332 157.2,48 C157.2,74.509668 135.854992,96 109.52459,96 C97.7241876,96 86.9251171,91.6835988 78.6,84.5334439 C70.2748829,91.6835988 59.4758124,96 47.6754098,96 C21.345008,96 0,74.509668 0,48 C0,21.490332 21.345008,0 47.6754098,0 C59.4758124,0 70.2748829,4.31640116 78.6,11.4665561 Z" id="Combined-Shape" fill="#FF5E00"></path>
                <path d="M78,11.4665561 C67.8274186,20.2706409 61.3770492,33.3710757 61.3770492,48 C61.3770492,62.6289243 67.8274186,75.7293591 78,84.5334439 C69.7384334,91.6835988 59.0217986,96 47.3114754,96 C21.1820691,96 0,74.509668 0,48 C0,21.490332 21.1820691,0 47.3114754,0 C59.0217986,0 69.7384334,4.31640116 78,11.4665561 Z" id="Combined-Shape" fill="#ED0006"></path>
                <path d="M79.2,84.5334439 C89.3725814,75.7293591 95.8229508,62.6289243 95.8229508,48 C95.8229508,33.3710757 89.3725814,20.2706409 79.2,11.4665561 C87.4615666,4.31640116 98.1782014,0 109.888525,0 C136.017931,0 157.2,21.490332 157.2,48 C157.2,74.509668 136.017931,96 109.888525,96 C98.1782014,96 87.4615666,91.6835988 79.2,84.5334439 Z" id="Combined-Shape" fill="#F9A000"></path>
            </g>
        </g>
    </g>
</svg>