<?xml version="1.0" encoding="utf-8"?>
<!-- Generator: Adobe Illustrator 25.0.0, SVG Export Plug-In . SVG Version: 6.00 Build 0)  -->
<svg version="1.1" id="Capa_1" xmlns="http://www.w3.org/2000/svg" xmlns:xlink="http://www.w3.org/1999/xlink" x="0px" y="0px"
	 viewBox="0 0 800 800" style="enable-background:new 0 0 800 800;" xml:space="preserve">
<style type="text/css">
	.st0{fill:#FECF3E;}
</style>
<g>
	<g id="c98_play">
		<path class="st0" d="M253.7,159.4c0.2-0.1,0.4-0.1,0.5,0c0,0,0,0,0,0l16.2,10.3c0,0,0.1,0,0.1,0.1c0.1,0.1,0.1,0.2,0.1,0.3
			c0,0.1-0.1,0.2-0.1,0.3c0,0-0.1,0.1-0.1,0.1l-16.2,10.4c0,0,0,0,0,0c0,0,0,0,0,0c-0.1,0.1-0.2,0.1-0.3,0.1l0,0
			c-0.2,0-0.3-0.2-0.4-0.3c0,0,0-0.1,0-0.1l0-20.8C253.5,159.6,253.6,159.5,253.7,159.4z"/>
	</g>
	<g id="Capa_1_78_">
	</g>
</g>
</svg>
